<svg xmlns="http://www.w3.org/2000/svg" width="480" height="220" viewBox="0 0 480 220">
  <defs>
    <linearGradient id="bg" x1="0" y1="0" x2="1" y2="1">
      <stop offset="0" stop-color="#EEF0FF"/>
      <stop offset="1" stop-color="#F3EEFF"/>
    </linearGradient>
  </defs>
  <rect x="4" y="4" width="472" height="212" rx="10" fill="url(#bg)" stroke="#D9D2FF"/>
  <g fill="#7C6BFF" opacity="0.35"><circle cx="18" cy="18" r="1"/><circle cx="25" cy="18" r="1"/><circle cx="32" cy="18" r="1"/><circle cx="39" cy="18" r="1"/><circle cx="46" cy="18" r="1"/><circle cx="53" cy="18" r="1"/><circle cx="18" cy="25" r="1"/><circle cx="25" cy="25" r="1"/><circle cx="32" cy="25" r="1"/><circle cx="39" cy="25" r="1"/><circle cx="46" cy="25" r="1"/><circle cx="53" cy="25" r="1"/><circle cx="18" cy="32" r="1"/><circle cx="25" cy="32" r="1"/><circle cx="32" cy="32" r="1"/><circle cx="39" cy="32" r="1"/><circle cx="46" cy="32" r="1"/><circle cx="53" cy="32" r="1"/><circle cx="18" cy="39" r="1"/><circle cx="25" cy="39" r="1"/><circle cx="32" cy="39" r="1"/><circle cx="39" cy="39" r="1"/><circle cx="46" cy="39" r="1"/><circle cx="53" cy="39" r="1"/><circle cx="18" cy="46" r="1"/><circle cx="25" cy="46" r="1"/><circle cx="32" cy="46" r="1"/><circle cx="39" cy="46" r="1"/><circle cx="46" cy="46" r="1"/><circle cx="53" cy="46" r="1"/></g>
  <g>
    <clipPath id="pclip"><circle cx="62" cy="80" r="36"/></clipPath>
    <g clip-path="url(#pclip)">
      <rect x="26" y="44" width="72" height="72" fill="#F4F1FF"/>
      <circle cx="62" cy="73.52" r="12.959999999999999" fill="#7C6BFF" opacity="0.85"/>
      <path d="M 26 116 a 25.919999999999998 22.32 0 0 1 72 0 z" fill="#7C6BFF" opacity="0.55"/>
    </g>
    <circle cx="62" cy="80" r="40" fill="none" stroke="#7C6BFF" stroke-width="1" opacity="0.35"/>
    <circle cx="62" cy="80" r="36" fill="none" stroke="#7C6BFF" stroke-width="2"/>
    <path d="M 62 40 a 40 40 0 0 1 40 40" fill="none" stroke="#7C6BFF" stroke-width="2.5" stroke-linecap="round"/>
  </g>
  
    <text x="118" y="58" font-family="Helvetica,Arial,sans-serif" font-size="21" font-weight="700" fill="#1E1B3A">Example <tspan fill="#7C6BFF">Data</tspan></text>
       <rect x="118" y="65" width="52" height="3" rx="1.5" fill="#7C6BFF"/>
       <text x="118" y="83" font-family="Helvetica,Arial,sans-serif" font-size="10" font-weight="700" letter-spacing="2.4" fill="#7C6BFF">PRODUCT MANAGER</text>
    <text x="118" y="104" font-family="Helvetica,Arial,sans-serif" font-size="11" fill="#6B6790">Building better products, together.</text>
    
      <g transform="translate(118 118)">
        <g fill="none" stroke="#7C6BFF" stroke-width="1.5" stroke-linecap="round" stroke-linejoin="round" transform="translate(0 -9) scale(0.8)">
          <path d="M2 4h12v8H2z M2 5l6 4 6-4"/>
        </g>
        <text x="20" y="0" font-family="Helvetica,Arial,sans-serif" font-size="11.5" fill="#6B6790">example.data@example.com</text>
      </g>
      <g transform="translate(118 137)">
        <g fill="none" stroke="#7C6BFF" stroke-width="1.5" stroke-linecap="round" stroke-linejoin="round" transform="translate(0 -9) scale(0.8)">
          <path d="M3 2h2.6l1.3 3.2-1.6 1a8 8 0 0 0 4 4l1-1.6L13.5 10v2.6a1.3 1.3 0 0 1-1.4 1.3A11.3 11.3 0 0 1 2 3.4 1.3 1.3 0 0 1 3 2z"/>
        </g>
        <text x="20" y="0" font-family="Helvetica,Arial,sans-serif" font-size="11.5" fill="#6B6790">+1 (555) 012-3456</text>
      </g>
      <g transform="translate(118 156)">
        <g fill="none" stroke="#7C6BFF" stroke-width="1.5" stroke-linecap="round" stroke-linejoin="round" transform="translate(0 -9) scale(0.8)">
          <path d="M8 14s4.5-3.7 4.5-7.2A4.5 4.5 0 0 0 3.5 6.8C3.5 10.3 8 14 8 14z"/>
        </g>
        <text x="20" y="0" font-family="Helvetica,Arial,sans-serif" font-size="11.5" fill="#6B6790">San Francisco, CA, USA</text>
      </g>
  
  
    <g transform="translate(418 52)">
      <rect width="32" height="32" rx="10" fill="#F4F1FF" stroke="#D9D2FF"/>
      <g transform="translate(8 8)" fill="none" stroke="#7C6BFF" stroke-width="1.6" stroke-linecap="round" stroke-linejoin="round">
        <path d="M2 4h12v8H2z M2 5l6 4 6-4"/>
      </g>
    </g>
    <g transform="translate(418 92)">
      <rect width="32" height="32" rx="10" fill="#F4F1FF" stroke="#D9D2FF"/>
      <g transform="translate(8 8)" fill="none" stroke="#7C6BFF" stroke-width="1.6" stroke-linecap="round" stroke-linejoin="round">
        <path d="M3 2h2.6l1.3 3.2-1.6 1a8 8 0 0 0 4 4l1-1.6L13.5 10v2.6a1.3 1.3 0 0 1-1.4 1.3A11.3 11.3 0 0 1 2 3.4 1.3 1.3 0 0 1 3 2z"/>
      </g>
    </g>
    <g transform="translate(418 132)">
      <rect width="32" height="32" rx="10" fill="#F4F1FF" stroke="#D9D2FF"/>
      <g transform="translate(8 8)" fill="none" stroke="#7C6BFF" stroke-width="1.6" stroke-linecap="round" stroke-linejoin="round">
        <path d="M8 14s4.5-3.7 4.5-7.2A4.5 4.5 0 0 0 3.5 6.8C3.5 10.3 8 14 8 14z"/>
      </g>
    </g>
</svg>